<svg xmlns="http://www.w3.org/2000/svg" width="16" height="16"><g style="opacity:1;fill:#241f31;fill-opacity:1"><path d="M0 15h3.466M0 14v2h3.467v-2z" style="font-variation-settings:&quot;wght&quot;700;baseline-shift:baseline;display:inline;overflow:visible;vector-effect:none;fill:#241f31;fill-opacity:1;marker:none;stop-color:#000;stop-opacity:1"/></g><g style="opacity:1;fill:#241f31;fill-opacity:1"><path d="M4.605 15h6.837M4.605 14v2h6.836v-2z" style="font-variation-settings:&quot;wght&quot;700;baseline-shift:baseline;display:inline;overflow:visible;vector-effect:none;fill:#241f31;fill-opacity:1;marker:none;stop-color:#000;stop-opacity:1"/></g><g style="opacity:1;fill:#241f31;fill-opacity:1"><path d="M12.582 15H16M12.582 14v2H16v-2z" style="font-variation-settings:&quot;wght&quot;700;baseline-shift:baseline;display:inline;overflow:visible;vector-effect:none;fill:#241f31;fill-opacity:1;marker:none;stop-color:#000;stop-opacity:1"/></g><path d="M8.024 0A6.025 6.025 0 0 0 2 6.026a6.025 6.025 0 0 0 6.024 6.024 6.025 6.025 0 0 0 6.023-6.024A6.025 6.025 0 0 0 8.024 0m0 2.324h2.468v1.645H8.846V8.08a1.647 1.647 0 0 1-3.29 0 1.643 1.643 0 0 1 2.468-1.423z" style="display:inline;fill:#241f31;fill-opacity:1;fill-rule:nonzero;stroke:none;stroke-width:.145833;stroke-linecap:butt;stroke-linejoin:miter;stroke-miterlimit:4;stroke-dasharray:none;stroke-dashoffset:0;stroke-opacity:1;marker:none;marker-start:none;marker-mid:none;marker-end:none;paint-order:normal"/></svg>